<?xml version="1.0" encoding="UTF-8" standalone="no"?>
<svg width="61px" height="49px" viewBox="0 0 61 49" version="1.1" xmlns="http://www.w3.org/2000/svg" xmlns:xlink="http://www.w3.org/1999/xlink">
    <!-- Generator: Sketch 39.1 (31720) - http://www.bohemiancoding.com/sketch -->
    <title>Page 1</title>
    <desc>Created with Sketch.</desc>
    <defs></defs>
    <g id="LANDING-PAGE" stroke="none" stroke-width="1" fill="none" fill-rule="evenodd">
        <g id="LANDING-KO" transform="translate(-157.000000, -407.000000)" fill="#4C80F1">
            <g id="Page-1" transform="translate(157.000000, 407.000000)">
                <g>
                    <path d="M59.449,25.699 L1.555,25.695 C0.891,25.695 0.355,25.16 0.355,24.496 C0.355,23.832 0.891,23.297 1.555,23.297 L59.449,23.301 C60.113,23.301 60.648,23.836 60.648,24.5 C60.648,25.164 60.109,25.699 59.449,25.699 L59.449,25.699 Z" id="Fill-1"></path>
                    <path d="M36.531,48.617 C36.223,48.617 35.914,48.5 35.68,48.266 C35.211,47.797 35.211,47.039 35.68,46.57 L57.75,24.5 L35.68,2.43 C35.211,1.961 35.211,1.203 35.68,0.734 C36.148,0.266 36.906,0.266 37.379,0.734 L60.297,23.652 C60.523,23.875 60.648,24.18 60.648,24.5 C60.648,24.82 60.523,25.125 60.297,25.348 L37.379,48.266 C37.145,48.5 36.836,48.617 36.531,48.617 L36.531,48.617 Z" id="Fill-2"></path>
                </g>
            </g>
        </g>
    </g>
</svg>